<mxfile host="app.diagrams.net" modified="2024-06-29T07:58:05.892Z" agent="Mozilla/5.0 (Windows NT 10.0; Win64; x64) AppleWebKit/537.36 (KHTML, like Gecko) Chrome/126.0.0.0 Safari/537.36" version="24.6.4" etag="y_jzgXtEol-adt1VD2De" type="github">
  <diagram name="Sida-1" id="BrfQ_QOp82XKB32UPEm2">
    <mxGraphModel>
      <root>
        <mxCell id="0" />
        <mxCell id="1" parent="0" />
      </root>
    </mxGraphModel>
  </diagram>
</mxfile>
